<mxfile host="app.diagrams.net" modified="2021-03-25T13:48:56.407Z" agent="5.0 (Macintosh; Intel Mac OS X 10_15_6) AppleWebKit/605.1.15 (KHTML, like Gecko) Version/14.0.3 Safari/605.1.15" etag="AKRQ1duCIABxEoAUGK1k" version="14.3.0" type="github">
  <diagram id="C5RBs43oDa-KdzZeNtuy" name="Page-1">
    <mxGraphModel dx="1114" dy="760" grid="1" gridSize="10" guides="1" tooltips="1" connect="1" arrows="1" fold="1" page="1" pageScale="1" pageWidth="827" pageHeight="1169" math="0" shadow="0">
      <root>
        <mxCell id="WIyWlLk6GJQsqaUBKTNV-0" />
        <mxCell id="WIyWlLk6GJQsqaUBKTNV-1" parent="WIyWlLk6GJQsqaUBKTNV-0" />
        <mxCell id="MvfcKC00I86EDnY7AeL_-20" style="edgeStyle=orthogonalEdgeStyle;rounded=0;orthogonalLoop=1;jettySize=auto;html=1;entryX=0;entryY=0.5;entryDx=0;entryDy=0;" edge="1" parent="WIyWlLk6GJQsqaUBKTNV-1" source="MvfcKC00I86EDnY7AeL_-2" target="MvfcKC00I86EDnY7AeL_-3">
          <mxGeometry relative="1" as="geometry" />
        </mxCell>
        <mxCell id="MvfcKC00I86EDnY7AeL_-29" style="edgeStyle=orthogonalEdgeStyle;rounded=0;orthogonalLoop=1;jettySize=auto;html=1;" edge="1" parent="WIyWlLk6GJQsqaUBKTNV-1" source="MvfcKC00I86EDnY7AeL_-2" target="MvfcKC00I86EDnY7AeL_-5">
          <mxGeometry relative="1" as="geometry" />
        </mxCell>
        <mxCell id="MvfcKC00I86EDnY7AeL_-2" value="main" style="html=1;" vertex="1" parent="WIyWlLk6GJQsqaUBKTNV-1">
          <mxGeometry x="110" y="150" width="100" height="50" as="geometry" />
        </mxCell>
        <mxCell id="MvfcKC00I86EDnY7AeL_-9" style="edgeStyle=orthogonalEdgeStyle;orthogonalLoop=1;jettySize=auto;html=1;entryX=0.393;entryY=0.02;entryDx=0;entryDy=0;entryPerimeter=0;rounded=0;" edge="1" parent="WIyWlLk6GJQsqaUBKTNV-1" source="MvfcKC00I86EDnY7AeL_-3" target="MvfcKC00I86EDnY7AeL_-6">
          <mxGeometry relative="1" as="geometry" />
        </mxCell>
        <mxCell id="MvfcKC00I86EDnY7AeL_-3" value="MainController" style="html=1;" vertex="1" parent="WIyWlLk6GJQsqaUBKTNV-1">
          <mxGeometry x="370" y="150" width="110" height="50" as="geometry" />
        </mxCell>
        <mxCell id="MvfcKC00I86EDnY7AeL_-21" style="edgeStyle=orthogonalEdgeStyle;rounded=0;orthogonalLoop=1;jettySize=auto;html=1;" edge="1" parent="WIyWlLk6GJQsqaUBKTNV-1" source="MvfcKC00I86EDnY7AeL_-5" target="MvfcKC00I86EDnY7AeL_-6">
          <mxGeometry relative="1" as="geometry" />
        </mxCell>
        <mxCell id="MvfcKC00I86EDnY7AeL_-27" style="edgeStyle=orthogonalEdgeStyle;rounded=0;orthogonalLoop=1;jettySize=auto;html=1;exitX=0.5;exitY=1;exitDx=0;exitDy=0;entryX=0.5;entryY=0;entryDx=0;entryDy=0;" edge="1" parent="WIyWlLk6GJQsqaUBKTNV-1" source="MvfcKC00I86EDnY7AeL_-5" target="MvfcKC00I86EDnY7AeL_-22">
          <mxGeometry relative="1" as="geometry" />
        </mxCell>
        <mxCell id="MvfcKC00I86EDnY7AeL_-5" value="MainScene" style="html=1;" vertex="1" parent="WIyWlLk6GJQsqaUBKTNV-1">
          <mxGeometry x="110" y="350" width="110" height="50" as="geometry" />
        </mxCell>
        <mxCell id="MvfcKC00I86EDnY7AeL_-16" style="edgeStyle=orthogonalEdgeStyle;rounded=0;orthogonalLoop=1;jettySize=auto;html=1;" edge="1" parent="WIyWlLk6GJQsqaUBKTNV-1" source="MvfcKC00I86EDnY7AeL_-6" target="MvfcKC00I86EDnY7AeL_-12">
          <mxGeometry relative="1" as="geometry" />
        </mxCell>
        <mxCell id="MvfcKC00I86EDnY7AeL_-6" value="MainSceneController" style="html=1;" vertex="1" parent="WIyWlLk6GJQsqaUBKTNV-1">
          <mxGeometry x="370" y="350" width="140" height="50" as="geometry" />
        </mxCell>
        <mxCell id="MvfcKC00I86EDnY7AeL_-17" style="edgeStyle=orthogonalEdgeStyle;rounded=0;orthogonalLoop=1;jettySize=auto;html=1;entryX=0.5;entryY=0;entryDx=0;entryDy=0;" edge="1" parent="WIyWlLk6GJQsqaUBKTNV-1" source="MvfcKC00I86EDnY7AeL_-12" target="MvfcKC00I86EDnY7AeL_-13">
          <mxGeometry relative="1" as="geometry" />
        </mxCell>
        <mxCell id="MvfcKC00I86EDnY7AeL_-34" style="edgeStyle=orthogonalEdgeStyle;rounded=0;orthogonalLoop=1;jettySize=auto;html=1;exitX=0.75;exitY=1;exitDx=0;exitDy=0;entryX=0.75;entryY=0;entryDx=0;entryDy=0;" edge="1" parent="WIyWlLk6GJQsqaUBKTNV-1" source="MvfcKC00I86EDnY7AeL_-12" target="MvfcKC00I86EDnY7AeL_-15">
          <mxGeometry relative="1" as="geometry">
            <Array as="points">
              <mxPoint x="505" y="510" />
            </Array>
          </mxGeometry>
        </mxCell>
        <mxCell id="MvfcKC00I86EDnY7AeL_-12" value="MainGroupController" style="html=1;" vertex="1" parent="WIyWlLk6GJQsqaUBKTNV-1">
          <mxGeometry x="344" y="460" width="131" height="50" as="geometry" />
        </mxCell>
        <mxCell id="MvfcKC00I86EDnY7AeL_-13" value="PannableCanvasController" style="html=1;" vertex="1" parent="WIyWlLk6GJQsqaUBKTNV-1">
          <mxGeometry x="310" y="560" width="156" height="50" as="geometry" />
        </mxCell>
        <mxCell id="MvfcKC00I86EDnY7AeL_-15" value="&amp;nbsp;ButtonBoxController" style="html=1;" vertex="1" parent="WIyWlLk6GJQsqaUBKTNV-1">
          <mxGeometry x="400" y="660" width="140" height="50" as="geometry" />
        </mxCell>
        <mxCell id="MvfcKC00I86EDnY7AeL_-25" style="edgeStyle=orthogonalEdgeStyle;rounded=0;orthogonalLoop=1;jettySize=auto;html=1;exitX=0.25;exitY=1;exitDx=0;exitDy=0;entryX=0.5;entryY=0;entryDx=0;entryDy=0;" edge="1" parent="WIyWlLk6GJQsqaUBKTNV-1" source="MvfcKC00I86EDnY7AeL_-22" target="MvfcKC00I86EDnY7AeL_-23">
          <mxGeometry relative="1" as="geometry" />
        </mxCell>
        <mxCell id="MvfcKC00I86EDnY7AeL_-26" style="edgeStyle=orthogonalEdgeStyle;rounded=0;orthogonalLoop=1;jettySize=auto;html=1;exitX=0.75;exitY=1;exitDx=0;exitDy=0;entryX=0.573;entryY=-0.06;entryDx=0;entryDy=0;entryPerimeter=0;" edge="1" parent="WIyWlLk6GJQsqaUBKTNV-1" source="MvfcKC00I86EDnY7AeL_-22" target="MvfcKC00I86EDnY7AeL_-24">
          <mxGeometry relative="1" as="geometry" />
        </mxCell>
        <mxCell id="MvfcKC00I86EDnY7AeL_-30" style="edgeStyle=orthogonalEdgeStyle;rounded=0;orthogonalLoop=1;jettySize=auto;html=1;entryX=0;entryY=0.5;entryDx=0;entryDy=0;" edge="1" parent="WIyWlLk6GJQsqaUBKTNV-1" source="MvfcKC00I86EDnY7AeL_-22" target="MvfcKC00I86EDnY7AeL_-12">
          <mxGeometry relative="1" as="geometry" />
        </mxCell>
        <mxCell id="MvfcKC00I86EDnY7AeL_-22" value="MainGroup" style="html=1;" vertex="1" parent="WIyWlLk6GJQsqaUBKTNV-1">
          <mxGeometry x="110" y="460" width="110" height="50" as="geometry" />
        </mxCell>
        <mxCell id="MvfcKC00I86EDnY7AeL_-35" style="edgeStyle=orthogonalEdgeStyle;rounded=0;orthogonalLoop=1;jettySize=auto;html=1;exitX=1;exitY=0.5;exitDx=0;exitDy=0;entryX=0;entryY=0.64;entryDx=0;entryDy=0;entryPerimeter=0;" edge="1" parent="WIyWlLk6GJQsqaUBKTNV-1" source="MvfcKC00I86EDnY7AeL_-23" target="MvfcKC00I86EDnY7AeL_-15">
          <mxGeometry relative="1" as="geometry" />
        </mxCell>
        <mxCell id="MvfcKC00I86EDnY7AeL_-23" value="ButtonBox" style="html=1;" vertex="1" parent="WIyWlLk6GJQsqaUBKTNV-1">
          <mxGeometry x="80" y="670" width="110" height="50" as="geometry" />
        </mxCell>
        <mxCell id="MvfcKC00I86EDnY7AeL_-32" style="edgeStyle=orthogonalEdgeStyle;rounded=0;orthogonalLoop=1;jettySize=auto;html=1;" edge="1" parent="WIyWlLk6GJQsqaUBKTNV-1" source="MvfcKC00I86EDnY7AeL_-24" target="MvfcKC00I86EDnY7AeL_-13">
          <mxGeometry relative="1" as="geometry" />
        </mxCell>
        <mxCell id="MvfcKC00I86EDnY7AeL_-24" value="PannableCanvas" style="html=1;" vertex="1" parent="WIyWlLk6GJQsqaUBKTNV-1">
          <mxGeometry x="150" y="560" width="110" height="50" as="geometry" />
        </mxCell>
      </root>
    </mxGraphModel>
  </diagram>
</mxfile>
